<svg xmlns="http://www.w3.org/2000/svg" xmlns:xlink="http://www.w3.org/1999/xlink" version="1.1" class="marks" width="690" height="534" viewBox="0 0 690 534"><rect width="690" height="534" fill="#333"/><g fill="none" stroke-miterlimit="10" transform="translate(58,10)"><g class="mark-group role-frame root" role="graphics-object" aria-roledescription="group mark container"><g transform="translate(0,0)"><path class="background" aria-hidden="true" d="M0.5,0.5h500v400h-500Z" stroke="#ddd"/><g><g class="mark-group role-axis" aria-hidden="true"><g transform="translate(0.5,0.5)"><path class="background" aria-hidden="true" d="M0,0h0v0h0Z" pointer-events="none"/><g><g class="mark-rule role-axis-grid" pointer-events="none"><line transform="translate(0,400)" x2="500" y2="0" stroke="#888" stroke-width="1" opacity="1"/><line transform="translate(0,356)" x2="500" y2="0" stroke="#888" stroke-width="1" opacity="1"/><line transform="translate(0,311)" x2="500" y2="0" stroke="#888" stroke-width="1" opacity="1"/><line transform="translate(0,267)" x2="500" y2="0" stroke="#888" stroke-width="1" opacity="1"/><line transform="translate(0,222)" x2="500" y2="0" stroke="#888" stroke-width="1" opacity="1"/><line transform="translate(0,178)" x2="500" y2="0" stroke="#888" stroke-width="1" opacity="1"/><line transform="translate(0,133)" x2="500" y2="0" stroke="#888" stroke-width="1" opacity="1"/><line transform="translate(0,89)" x2="500" y2="0" stroke="#888" stroke-width="1" opacity="1"/><line transform="translate(0,44)" x2="500" y2="0" stroke="#888" stroke-width="1" opacity="1"/><line transform="translate(0,0)" x2="500" y2="0" stroke="#888" stroke-width="1" opacity="1"/></g></g><path class="foreground" aria-hidden="true" d="" pointer-events="none" display="none"/></g></g><g class="mark-group role-axis" role="graphics-symbol" aria-roledescription="axis" aria-label="X-axis titled 'City' for a discrete scale with 16 values: Alvaro Obregon, Azcapotzalco, Benito Juarez, Coyoacan, Cuajimalpa, ending with Xochimilco"><g transform="translate(0.5,400.5)"><path class="background" aria-hidden="true" d="M0,0h0v0h0Z" pointer-events="none"/><g><g class="mark-rule role-axis-tick" pointer-events="none"><line transform="translate(15,0)" x2="0" y2="5" stroke="#fff" stroke-width="1" opacity="1"/><line transform="translate(46,0)" x2="0" y2="5" stroke="#fff" stroke-width="1" opacity="1"/><line transform="translate(78,0)" x2="0" y2="5" stroke="#fff" stroke-width="1" opacity="1"/><line transform="translate(109,0)" x2="0" y2="5" stroke="#fff" stroke-width="1" opacity="1"/><line transform="translate(140,0)" x2="0" y2="5" stroke="#fff" stroke-width="1" opacity="1"/><line transform="translate(171,0)" x2="0" y2="5" stroke="#fff" stroke-width="1" opacity="1"/><line transform="translate(203,0)" x2="0" y2="5" stroke="#fff" stroke-width="1" opacity="1"/><line transform="translate(234,0)" x2="0" y2="5" stroke="#fff" stroke-width="1" opacity="1"/><line transform="translate(265,0)" x2="0" y2="5" stroke="#fff" stroke-width="1" opacity="1"/><line transform="translate(296,0)" x2="0" y2="5" stroke="#fff" stroke-width="1" opacity="1"/><line transform="translate(328,0)" x2="0" y2="5" stroke="#fff" stroke-width="1" opacity="1"/><line transform="translate(359,0)" x2="0" y2="5" stroke="#fff" stroke-width="1" opacity="1"/><line transform="translate(390,0)" x2="0" y2="5" stroke="#fff" stroke-width="1" opacity="1"/><line transform="translate(421,0)" x2="0" y2="5" stroke="#fff" stroke-width="1" opacity="1"/><line transform="translate(453,0)" x2="0" y2="5" stroke="#fff" stroke-width="1" opacity="1"/><line transform="translate(484,0)" x2="0" y2="5" stroke="#fff" stroke-width="1" opacity="1"/></g><g class="mark-text role-axis-label" pointer-events="none"><text text-anchor="start" transform="translate(15.125,7) rotate(90) translate(0,3)" font-family="sans-serif" font-size="10px" fill="#fff" opacity="1">Alvaro Obregon</text><text text-anchor="start" transform="translate(46.375,7) rotate(90) translate(0,3)" font-family="sans-serif" font-size="10px" fill="#fff" opacity="1">Azcapotzalco</text><text text-anchor="start" transform="translate(77.625,7) rotate(90) translate(0,3)" font-family="sans-serif" font-size="10px" fill="#fff" opacity="1">Benito Juarez</text><text text-anchor="start" transform="translate(108.875,7) rotate(90) translate(0,3)" font-family="sans-serif" font-size="10px" fill="#fff" opacity="1">Coyoacan</text><text text-anchor="start" transform="translate(140.125,7) rotate(90) translate(0,3)" font-family="sans-serif" font-size="10px" fill="#fff" opacity="1">Cuajimalpa</text><text text-anchor="start" transform="translate(171.375,7) rotate(90) translate(0,3)" font-family="sans-serif" font-size="10px" fill="#fff" opacity="1">Cuauhtemoc</text><text text-anchor="start" transform="translate(202.625,7) rotate(90) translate(0,3)" font-family="sans-serif" font-size="10px" fill="#fff" opacity="1">Gustavo A. Madero</text><text text-anchor="start" transform="translate(233.875,7) rotate(90) translate(0,3)" font-family="sans-serif" font-size="10px" fill="#fff" opacity="1">Iztacalco</text><text text-anchor="start" transform="translate(265.125,7) rotate(90) translate(0,3)" font-family="sans-serif" font-size="10px" fill="#fff" opacity="1">Iztapalapa</text><text text-anchor="start" transform="translate(296.375,7) rotate(90) translate(0,3)" font-family="sans-serif" font-size="10px" fill="#fff" opacity="1">Magdalena Contreras</text><text text-anchor="start" transform="translate(327.625,7) rotate(90) translate(0,3)" font-family="sans-serif" font-size="10px" fill="#fff" opacity="1">Miguel Hidalgo</text><text text-anchor="start" transform="translate(358.875,7) rotate(90) translate(0,3)" font-family="sans-serif" font-size="10px" fill="#fff" opacity="1">Milpa Alta</text><text text-anchor="start" transform="translate(390.125,7) rotate(90) translate(0,3)" font-family="sans-serif" font-size="10px" fill="#fff" opacity="1">Tlahuac</text><text text-anchor="start" transform="translate(421.375,7) rotate(90) translate(0,3)" font-family="sans-serif" font-size="10px" fill="#fff" opacity="1">Tlalplan</text><text text-anchor="start" transform="translate(452.625,7) rotate(90) translate(0,3)" font-family="sans-serif" font-size="10px" fill="#fff" opacity="1">Venustiano Carranza</text><text text-anchor="start" transform="translate(483.875,7) rotate(90) translate(0,3)" font-family="sans-serif" font-size="10px" fill="#fff" opacity="1">Xochimilco</text></g><g class="mark-rule role-axis-domain" pointer-events="none"><line transform="translate(0,0)" x2="500" y2="0" stroke="#fff" stroke-width="1" opacity="1"/></g><g class="mark-text role-axis-title" pointer-events="none"><text text-anchor="middle" transform="translate(250,116.1669921875)" font-family="sans-serif" font-size="11px" font-weight="bold" fill="#fff" opacity="1">City</text></g></g><path class="foreground" aria-hidden="true" d="" pointer-events="none" display="none"/></g></g><g class="mark-group role-axis" role="graphics-symbol" aria-roledescription="axis" aria-label="Y-axis titled 'Number of accidents' for a linear scale with values from 0 to 45,000"><g transform="translate(0.5,0.5)"><path class="background" aria-hidden="true" d="M0,0h0v0h0Z" pointer-events="none"/><g><g class="mark-rule role-axis-tick" pointer-events="none"><line transform="translate(0,400)" x2="-5" y2="0" stroke="#fff" stroke-width="1" opacity="1"/><line transform="translate(0,356)" x2="-5" y2="0" stroke="#fff" stroke-width="1" opacity="1"/><line transform="translate(0,311)" x2="-5" y2="0" stroke="#fff" stroke-width="1" opacity="1"/><line transform="translate(0,267)" x2="-5" y2="0" stroke="#fff" stroke-width="1" opacity="1"/><line transform="translate(0,222)" x2="-5" y2="0" stroke="#fff" stroke-width="1" opacity="1"/><line transform="translate(0,178)" x2="-5" y2="0" stroke="#fff" stroke-width="1" opacity="1"/><line transform="translate(0,133)" x2="-5" y2="0" stroke="#fff" stroke-width="1" opacity="1"/><line transform="translate(0,89)" x2="-5" y2="0" stroke="#fff" stroke-width="1" opacity="1"/><line transform="translate(0,44)" x2="-5" y2="0" stroke="#fff" stroke-width="1" opacity="1"/><line transform="translate(0,0)" x2="-5" y2="0" stroke="#fff" stroke-width="1" opacity="1"/></g><g class="mark-text role-axis-label" pointer-events="none"><text text-anchor="end" transform="translate(-7,403)" font-family="sans-serif" font-size="10px" fill="#fff" opacity="1">0</text><text text-anchor="end" transform="translate(-7,358.55555555555554)" font-family="sans-serif" font-size="10px" fill="#fff" opacity="1">5,000</text><text text-anchor="end" transform="translate(-7,314.11111111111114)" font-family="sans-serif" font-size="10px" fill="#fff" opacity="1">10,000</text><text text-anchor="end" transform="translate(-7,269.6666666666667)" font-family="sans-serif" font-size="10px" fill="#fff" opacity="1">15,000</text><text text-anchor="end" transform="translate(-7,225.22222222222223)" font-family="sans-serif" font-size="10px" fill="#fff" opacity="1">20,000</text><text text-anchor="end" transform="translate(-7,180.77777777777777)" font-family="sans-serif" font-size="10px" fill="#fff" opacity="1">25,000</text><text text-anchor="end" transform="translate(-7,136.33333333333334)" font-family="sans-serif" font-size="10px" fill="#fff" opacity="1">30,000</text><text text-anchor="end" transform="translate(-7,91.88888888888889)" font-family="sans-serif" font-size="10px" fill="#fff" opacity="1">35,000</text><text text-anchor="end" transform="translate(-7,47.444444444444464)" font-family="sans-serif" font-size="10px" fill="#fff" opacity="1">40,000</text><text text-anchor="end" transform="translate(-7,3)" font-family="sans-serif" font-size="10px" fill="#fff" opacity="1">45,000</text></g><g class="mark-rule role-axis-domain" pointer-events="none"><line transform="translate(0,400)" x2="0" y2="-400" stroke="#fff" stroke-width="1" opacity="1"/></g><g class="mark-text role-axis-title" pointer-events="none"><text text-anchor="middle" transform="translate(-41.5859375,200) rotate(-90) translate(0,-2)" font-family="sans-serif" font-size="11px" font-weight="bold" fill="#fff" opacity="1">Number of accidents</text></g></g><path class="foreground" aria-hidden="true" d="" pointer-events="none" display="none"/></g></g><g class="mark-rect role-mark marks" role="graphics-object" aria-roledescription="rect mark container"><path aria-label="City: Alvaro Obregon; Number of accidents: 18734" role="graphics-symbol" aria-roledescription="bar" d="M1.5625,233.47555555555556h28.125v166.52444444444444h-28.125Z" fill="#bab0ac"/><path aria-label="City: Azcapotzalco; Number of accidents: 10685" role="graphics-symbol" aria-roledescription="bar" d="M32.8125,305.02222222222224h28.125v94.97777777777776h-28.125Z" fill="#b279a2"/><path aria-label="City: Benito Juarez; Number of accidents: 18837" role="graphics-symbol" aria-roledescription="bar" d="M64.0625,232.55999999999997h28.125v167.44000000000003h-28.125Z" fill="#4c78a8"/><path aria-label="City: Coyoacan; Number of accidents: 19600" role="graphics-symbol" aria-roledescription="bar" d="M95.3125,225.7777777777778h28.125v174.2222222222222h-28.125Z" fill="#f58518"/><path aria-label="City: Cuajimalpa; Number of accidents: 4966" role="graphics-symbol" aria-roledescription="bar" d="M126.5625,355.85777777777776h28.125v44.142222222222244h-28.125Z" fill="#e45756"/><path aria-label="City: Cuauhtemoc; Number of accidents: 24811" role="graphics-symbol" aria-roledescription="bar" d="M157.8125,179.45777777777775h28.125v220.54222222222225h-28.125Z" fill="#72b7b2"/><path aria-label="City: Gustavo A. Madero; Number of accidents: 25069" role="graphics-symbol" aria-roledescription="bar" d="M189.0625,177.16444444444446h28.125v222.83555555555554h-28.125Z" fill="#54a24b"/><path aria-label="City: Iztacalco; Number of accidents: 9826" role="graphics-symbol" aria-roledescription="bar" d="M220.3125,312.65777777777777h28.125v87.34222222222223h-28.125Z" fill="#eeca3b"/><path aria-label="City: Iztapalapa; Number of accidents: 40577" role="graphics-symbol" aria-roledescription="bar" d="M251.5625,39.31555555555555h28.125v360.68444444444447h-28.125Z" fill="#eeca3b"/><path aria-label="City: Magdalena Contreras; Number of accidents: 3806" role="graphics-symbol" aria-roledescription="bar" d="M282.8125,366.1688888888889h28.125v33.83111111111111h-28.125Z" fill="#f58518"/><path aria-label="City: Miguel Hidalgo; Number of accidents: 20694" role="graphics-symbol" aria-roledescription="bar" d="M314.0625,216.05333333333334h28.125v183.94666666666666h-28.125Z" fill="#e45756"/><path aria-label="City: Milpa Alta; Number of accidents: 1338" role="graphics-symbol" aria-roledescription="bar" d="M345.3125,388.1066666666666h28.125v11.893333333333374h-28.125Z" fill="#4c78a8"/><path aria-label="City: Tlahuac; Number of accidents: 6037" role="graphics-symbol" aria-roledescription="bar" d="M376.5625,346.3377777777778h28.125v53.662222222222226h-28.125Z" fill="#72b7b2"/><path aria-label="City: Tlalplan; Number of accidents: 15224" role="graphics-symbol" aria-roledescription="bar" d="M407.8125,264.67555555555555h28.125v135.32444444444445h-28.125Z" fill="#ff9da6"/><path aria-label="City: Venustiano Carranza; Number of accidents: 16640" role="graphics-symbol" aria-roledescription="bar" d="M439.0625,252.0888888888889h28.125v147.9111111111111h-28.125Z" fill="#9d755d"/><path aria-label="City: Xochimilco; Number of accidents: 9697" role="graphics-symbol" aria-roledescription="bar" d="M470.3125,313.80444444444447h28.125v86.19555555555553h-28.125Z" fill="#54a24b"/></g><g class="mark-group role-legend" role="graphics-symbol" aria-roledescription="legend" aria-label="Symbol legend titled 'Number of accidents' for fill color with 16 values: 1338, 3806, 4966, 6037, 9697, ending with 40577"><g transform="translate(518,0)"><path class="background" aria-hidden="true" d="M0,0h109v222h-109Z" pointer-events="none"/><g><g class="mark-group role-legend-entry"><g transform="translate(0,16)"><path class="background" aria-hidden="true" d="M0,0h0v0h0Z" pointer-events="none"/><g><g class="mark-group role-scope" role="graphics-object" aria-roledescription="group mark container"><g transform="translate(0,0)"><path class="background" aria-hidden="true" d="M0,0h43.8076171875v11h-43.8076171875Z" pointer-events="none" opacity="1"/><g><g class="mark-symbol role-legend-symbol" pointer-events="none"><path transform="translate(6,6)" d="M-5,-5h10v10h-10Z" fill="#4c78a8" stroke-width="1.5" opacity="1"/></g><g class="mark-text role-legend-label" pointer-events="none"><text text-anchor="start" transform="translate(16,9)" font-family="sans-serif" font-size="10px" fill="#fff" opacity="1">1338</text></g></g><path class="foreground" aria-hidden="true" d="" pointer-events="none" display="none"/></g><g transform="translate(0,13)"><path class="background" aria-hidden="true" d="M0,0h43.8076171875v11h-43.8076171875Z" pointer-events="none" opacity="1"/><g><g class="mark-symbol role-legend-symbol" pointer-events="none"><path transform="translate(6,6)" d="M-5,-5h10v10h-10Z" fill="#f58518" stroke-width="1.5" opacity="1"/></g><g class="mark-text role-legend-label" pointer-events="none"><text text-anchor="start" transform="translate(16,9)" font-family="sans-serif" font-size="10px" fill="#fff" opacity="1">3806</text></g></g><path class="foreground" aria-hidden="true" d="" pointer-events="none" display="none"/></g><g transform="translate(0,26)"><path class="background" aria-hidden="true" d="M0,0h43.8076171875v11h-43.8076171875Z" pointer-events="none" opacity="1"/><g><g class="mark-symbol role-legend-symbol" pointer-events="none"><path transform="translate(6,6)" d="M-5,-5h10v10h-10Z" fill="#e45756" stroke-width="1.5" opacity="1"/></g><g class="mark-text role-legend-label" pointer-events="none"><text text-anchor="start" transform="translate(16,9)" font-family="sans-serif" font-size="10px" fill="#fff" opacity="1">4966</text></g></g><path class="foreground" aria-hidden="true" d="" pointer-events="none" display="none"/></g><g transform="translate(0,39)"><path class="background" aria-hidden="true" d="M0,0h43.8076171875v11h-43.8076171875Z" pointer-events="none" opacity="1"/><g><g class="mark-symbol role-legend-symbol" pointer-events="none"><path transform="translate(6,6)" d="M-5,-5h10v10h-10Z" fill="#72b7b2" stroke-width="1.5" opacity="1"/></g><g class="mark-text role-legend-label" pointer-events="none"><text text-anchor="start" transform="translate(16,9)" font-family="sans-serif" font-size="10px" fill="#fff" opacity="1">6037</text></g></g><path class="foreground" aria-hidden="true" d="" pointer-events="none" display="none"/></g><g transform="translate(0,52)"><path class="background" aria-hidden="true" d="M0,0h43.8076171875v11h-43.8076171875Z" pointer-events="none" opacity="1"/><g><g class="mark-symbol role-legend-symbol" pointer-events="none"><path transform="translate(6,6)" d="M-5,-5h10v10h-10Z" fill="#54a24b" stroke-width="1.5" opacity="1"/></g><g class="mark-text role-legend-label" pointer-events="none"><text text-anchor="start" transform="translate(16,9)" font-family="sans-serif" font-size="10px" fill="#fff" opacity="1">9697</text></g></g><path class="foreground" aria-hidden="true" d="" pointer-events="none" display="none"/></g><g transform="translate(0,65)"><path class="background" aria-hidden="true" d="M0,0h43.8076171875v11h-43.8076171875Z" pointer-events="none" opacity="1"/><g><g class="mark-symbol role-legend-symbol" pointer-events="none"><path transform="translate(6,6)" d="M-5,-5h10v10h-10Z" fill="#eeca3b" stroke-width="1.5" opacity="1"/></g><g class="mark-text role-legend-label" pointer-events="none"><text text-anchor="start" transform="translate(16,9)" font-family="sans-serif" font-size="10px" fill="#fff" opacity="1">9826</text></g></g><path class="foreground" aria-hidden="true" d="" pointer-events="none" display="none"/></g><g transform="translate(0,78)"><path class="background" aria-hidden="true" d="M0,0h43.8076171875v11h-43.8076171875Z" pointer-events="none" opacity="1"/><g><g class="mark-symbol role-legend-symbol" pointer-events="none"><path transform="translate(6,6)" d="M-5,-5h10v10h-10Z" fill="#b279a2" stroke-width="1.5" opacity="1"/></g><g class="mark-text role-legend-label" pointer-events="none"><text text-anchor="start" transform="translate(16,9)" font-family="sans-serif" font-size="10px" fill="#fff" opacity="1">10685</text></g></g><path class="foreground" aria-hidden="true" d="" pointer-events="none" display="none"/></g><g transform="translate(0,91)"><path class="background" aria-hidden="true" d="M0,0h43.8076171875v11h-43.8076171875Z" pointer-events="none" opacity="1"/><g><g class="mark-symbol role-legend-symbol" pointer-events="none"><path transform="translate(6,6)" d="M-5,-5h10v10h-10Z" fill="#ff9da6" stroke-width="1.5" opacity="1"/></g><g class="mark-text role-legend-label" pointer-events="none"><text text-anchor="start" transform="translate(16,9)" font-family="sans-serif" font-size="10px" fill="#fff" opacity="1">15224</text></g></g><path class="foreground" aria-hidden="true" d="" pointer-events="none" display="none"/></g><g transform="translate(0,104)"><path class="background" aria-hidden="true" d="M0,0h43.8076171875v11h-43.8076171875Z" pointer-events="none" opacity="1"/><g><g class="mark-symbol role-legend-symbol" pointer-events="none"><path transform="translate(6,6)" d="M-5,-5h10v10h-10Z" fill="#9d755d" stroke-width="1.5" opacity="1"/></g><g class="mark-text role-legend-label" pointer-events="none"><text text-anchor="start" transform="translate(16,9)" font-family="sans-serif" font-size="10px" fill="#fff" opacity="1">16640</text></g></g><path class="foreground" aria-hidden="true" d="" pointer-events="none" display="none"/></g><g transform="translate(0,117)"><path class="background" aria-hidden="true" d="M0,0h43.8076171875v11h-43.8076171875Z" pointer-events="none" opacity="1"/><g><g class="mark-symbol role-legend-symbol" pointer-events="none"><path transform="translate(6,6)" d="M-5,-5h10v10h-10Z" fill="#bab0ac" stroke-width="1.5" opacity="1"/></g><g class="mark-text role-legend-label" pointer-events="none"><text text-anchor="start" transform="translate(16,9)" font-family="sans-serif" font-size="10px" fill="#fff" opacity="1">18734</text></g></g><path class="foreground" aria-hidden="true" d="" pointer-events="none" display="none"/></g><g transform="translate(0,130)"><path class="background" aria-hidden="true" d="M0,0h43.8076171875v11h-43.8076171875Z" pointer-events="none" opacity="1"/><g><g class="mark-symbol role-legend-symbol" pointer-events="none"><path transform="translate(6,6)" d="M-5,-5h10v10h-10Z" fill="#4c78a8" stroke-width="1.5" opacity="1"/></g><g class="mark-text role-legend-label" pointer-events="none"><text text-anchor="start" transform="translate(16,9)" font-family="sans-serif" font-size="10px" fill="#fff" opacity="1">18837</text></g></g><path class="foreground" aria-hidden="true" d="" pointer-events="none" display="none"/></g><g transform="translate(0,143)"><path class="background" aria-hidden="true" d="M0,0h43.8076171875v11h-43.8076171875Z" pointer-events="none" opacity="1"/><g><g class="mark-symbol role-legend-symbol" pointer-events="none"><path transform="translate(6,6)" d="M-5,-5h10v10h-10Z" fill="#f58518" stroke-width="1.5" opacity="1"/></g><g class="mark-text role-legend-label" pointer-events="none"><text text-anchor="start" transform="translate(16,9)" font-family="sans-serif" font-size="10px" fill="#fff" opacity="1">19600</text></g></g><path class="foreground" aria-hidden="true" d="" pointer-events="none" display="none"/></g><g transform="translate(0,156)"><path class="background" aria-hidden="true" d="M0,0h43.8076171875v11h-43.8076171875Z" pointer-events="none" opacity="1"/><g><g class="mark-symbol role-legend-symbol" pointer-events="none"><path transform="translate(6,6)" d="M-5,-5h10v10h-10Z" fill="#e45756" stroke-width="1.5" opacity="1"/></g><g class="mark-text role-legend-label" pointer-events="none"><text text-anchor="start" transform="translate(16,9)" font-family="sans-serif" font-size="10px" fill="#fff" opacity="1">20694</text></g></g><path class="foreground" aria-hidden="true" d="" pointer-events="none" display="none"/></g><g transform="translate(0,169)"><path class="background" aria-hidden="true" d="M0,0h43.8076171875v11h-43.8076171875Z" pointer-events="none" opacity="1"/><g><g class="mark-symbol role-legend-symbol" pointer-events="none"><path transform="translate(6,6)" d="M-5,-5h10v10h-10Z" fill="#72b7b2" stroke-width="1.5" opacity="1"/></g><g class="mark-text role-legend-label" pointer-events="none"><text text-anchor="start" transform="translate(16,9)" font-family="sans-serif" font-size="10px" fill="#fff" opacity="1">24811</text></g></g><path class="foreground" aria-hidden="true" d="" pointer-events="none" display="none"/></g><g transform="translate(0,182)"><path class="background" aria-hidden="true" d="M0,0h43.8076171875v11h-43.8076171875Z" pointer-events="none" opacity="1"/><g><g class="mark-symbol role-legend-symbol" pointer-events="none"><path transform="translate(6,6)" d="M-5,-5h10v10h-10Z" fill="#54a24b" stroke-width="1.5" opacity="1"/></g><g class="mark-text role-legend-label" pointer-events="none"><text text-anchor="start" transform="translate(16,9)" font-family="sans-serif" font-size="10px" fill="#fff" opacity="1">25069</text></g></g><path class="foreground" aria-hidden="true" d="" pointer-events="none" display="none"/></g><g transform="translate(0,195)"><path class="background" aria-hidden="true" d="M0,0h43.8076171875v11h-43.8076171875Z" pointer-events="none" opacity="1"/><g><g class="mark-symbol role-legend-symbol" pointer-events="none"><path transform="translate(6,6)" d="M-5,-5h10v10h-10Z" fill="#eeca3b" stroke-width="1.5" opacity="1"/></g><g class="mark-text role-legend-label" pointer-events="none"><text text-anchor="start" transform="translate(16,9)" font-family="sans-serif" font-size="10px" fill="#fff" opacity="1">40577</text></g></g><path class="foreground" aria-hidden="true" d="" pointer-events="none" display="none"/></g></g></g><path class="foreground" aria-hidden="true" d="" pointer-events="none" display="none"/></g></g><g class="mark-text role-legend-title" pointer-events="none"><text text-anchor="start" transform="translate(0,9)" font-family="sans-serif" font-size="11px" font-weight="bold" fill="#fff" opacity="1">Number of accidents</text></g></g><path class="foreground" aria-hidden="true" d="" pointer-events="none" display="none"/></g></g></g><path class="foreground" aria-hidden="true" d="" display="none"/></g></g></g></svg>