<svg xmlns="http://www.w3.org/2000/svg" xmlns:xlink="http://www.w3.org/1999/xlink" version="1.1" class="marks" width="576" height="455" viewBox="0 0 576 455"><rect width="576" height="455" fill="#99A3A4"/><g fill="none" stroke-miterlimit="10" transform="translate(66,10)"><g class="mark-group role-frame root" role="graphics-object" aria-roledescription="group mark container"><g transform="translate(0,0)"><path class="background" aria-hidden="true" d="M0.5,0.5h500v400h-500Z" stroke="#ddd"/><g><g class="mark-group role-axis" aria-hidden="true"><g transform="translate(0.5,400.5)"><path class="background" aria-hidden="true" d="M0,0h0v0h0Z" pointer-events="none"/><g><g class="mark-rule role-axis-grid" pointer-events="none"><line transform="translate(0,-400)" x2="0" y2="400" stroke="#000000" stroke-opacity="1" stroke-width="0.5" opacity="1"/><line transform="translate(46,-400)" x2="0" y2="400" stroke="#000000" stroke-opacity="1" stroke-width="0.5" opacity="1"/><line transform="translate(88,-400)" x2="0" y2="400" stroke="#000000" stroke-opacity="1" stroke-width="0.5" opacity="1"/><line transform="translate(135,-400)" x2="0" y2="400" stroke="#000000" stroke-opacity="1" stroke-width="0.5" opacity="1"/><line transform="translate(180,-400)" x2="0" y2="400" stroke="#000000" stroke-opacity="1" stroke-width="0.5" opacity="1"/><line transform="translate(226,-400)" x2="0" y2="400" stroke="#000000" stroke-opacity="1" stroke-width="0.5" opacity="1"/><line transform="translate(271,-400)" x2="0" y2="400" stroke="#000000" stroke-opacity="1" stroke-width="0.5" opacity="1"/><line transform="translate(317,-400)" x2="0" y2="400" stroke="#000000" stroke-opacity="1" stroke-width="0.5" opacity="1"/><line transform="translate(364,-400)" x2="0" y2="400" stroke="#000000" stroke-opacity="1" stroke-width="0.5" opacity="1"/><line transform="translate(409,-400)" x2="0" y2="400" stroke="#000000" stroke-opacity="1" stroke-width="0.5" opacity="1"/><line transform="translate(455,-400)" x2="0" y2="400" stroke="#000000" stroke-opacity="1" stroke-width="0.5" opacity="1"/><line transform="translate(500,-400)" x2="0" y2="400" stroke="#000000" stroke-opacity="1" stroke-width="0.5" opacity="1"/></g></g><path class="foreground" aria-hidden="true" d="" pointer-events="none" display="none"/></g></g><g class="mark-group role-axis" aria-hidden="true"><g transform="translate(0.5,0.5)"><path class="background" aria-hidden="true" d="M0,0h0v0h0Z" pointer-events="none"/><g><g class="mark-rule role-axis-grid" pointer-events="none"><line transform="translate(0,400)" x2="500" y2="0" stroke="#000000" stroke-opacity="1" stroke-width="0.5" opacity="1"/><line transform="translate(0,364)" x2="500" y2="0" stroke="#000000" stroke-opacity="1" stroke-width="0.5" opacity="1"/><line transform="translate(0,327)" x2="500" y2="0" stroke="#000000" stroke-opacity="1" stroke-width="0.5" opacity="1"/><line transform="translate(0,291)" x2="500" y2="0" stroke="#000000" stroke-opacity="1" stroke-width="0.5" opacity="1"/><line transform="translate(0,255)" x2="500" y2="0" stroke="#000000" stroke-opacity="1" stroke-width="0.5" opacity="1"/><line transform="translate(0,218)" x2="500" y2="0" stroke="#000000" stroke-opacity="1" stroke-width="0.5" opacity="1"/><line transform="translate(0,182)" x2="500" y2="0" stroke="#000000" stroke-opacity="1" stroke-width="0.5" opacity="1"/><line transform="translate(0,145)" x2="500" y2="0" stroke="#000000" stroke-opacity="1" stroke-width="0.5" opacity="1"/><line transform="translate(0,109)" x2="500" y2="0" stroke="#000000" stroke-opacity="1" stroke-width="0.5" opacity="1"/><line transform="translate(0,73)" x2="500" y2="0" stroke="#000000" stroke-opacity="1" stroke-width="0.5" opacity="1"/><line transform="translate(0,36)" x2="500" y2="0" stroke="#000000" stroke-opacity="1" stroke-width="0.5" opacity="1"/><line transform="translate(0,0)" x2="500" y2="0" stroke="#000000" stroke-opacity="1" stroke-width="0.5" opacity="1"/></g></g><path class="foreground" aria-hidden="true" d="" pointer-events="none" display="none"/></g></g><g class="mark-group role-axis" role="graphics-symbol" aria-roledescription="axis" aria-label="X-axis titled 'Month' for a time scale with values from Sunday, 01 January 2017, 12:00:00 AM to Friday, 01 December 2017, 12:00:00 AM"><g transform="translate(0.5,400.5)"><path class="background" aria-hidden="true" d="M0,0h0v0h0Z" pointer-events="none"/><g><g class="mark-rule role-axis-tick" pointer-events="none"><line transform="translate(0,0)" x2="0" y2="5" stroke="#888" stroke-width="0.5" opacity="1"/><line transform="translate(46,0)" x2="0" y2="5" stroke="#888" stroke-width="0.5" opacity="1"/><line transform="translate(88,0)" x2="0" y2="5" stroke="#888" stroke-width="0.5" opacity="1"/><line transform="translate(135,0)" x2="0" y2="5" stroke="#888" stroke-width="0.5" opacity="1"/><line transform="translate(180,0)" x2="0" y2="5" stroke="#888" stroke-width="0.5" opacity="1"/><line transform="translate(226,0)" x2="0" y2="5" stroke="#888" stroke-width="0.5" opacity="1"/><line transform="translate(271,0)" x2="0" y2="5" stroke="#888" stroke-width="0.5" opacity="1"/><line transform="translate(317,0)" x2="0" y2="5" stroke="#888" stroke-width="0.5" opacity="1"/><line transform="translate(364,0)" x2="0" y2="5" stroke="#888" stroke-width="0.5" opacity="1"/><line transform="translate(409,0)" x2="0" y2="5" stroke="#888" stroke-width="0.5" opacity="1"/><line transform="translate(455,0)" x2="0" y2="5" stroke="#888" stroke-width="0.5" opacity="1"/><line transform="translate(500,0)" x2="0" y2="5" stroke="#888" stroke-width="0.5" opacity="1"/></g><g class="mark-text role-axis-label" pointer-events="none"><text text-anchor="start" transform="translate(0,23)" font-family="sans-serif" font-size="10px" fill="#000" opacity="1">2017</text><text text-anchor="middle" transform="translate(46.40718562874251,23)" font-family="sans-serif" font-size="10px" fill="#000" opacity="0">February</text><text text-anchor="middle" transform="translate(88.32335329341318,23)" font-family="sans-serif" font-size="10px" fill="#000" opacity="1">March</text><text text-anchor="middle" transform="translate(134.66816367265469,23)" font-family="sans-serif" font-size="10px" fill="#000" opacity="0">April</text><text text-anchor="middle" transform="translate(179.57834331337324,23)" font-family="sans-serif" font-size="10px" fill="#000" opacity="1">May</text><text text-anchor="middle" transform="translate(225.98552894211576,23)" font-family="sans-serif" font-size="10px" fill="#000" opacity="0">June</text><text text-anchor="middle" transform="translate(270.89570858283435,23)" font-family="sans-serif" font-size="10px" fill="#000" opacity="1">July</text><text text-anchor="middle" transform="translate(317.30289421157687,23)" font-family="sans-serif" font-size="10px" fill="#000" opacity="0">August</text><text text-anchor="middle" transform="translate(363.71007984031934,23)" font-family="sans-serif" font-size="10px" fill="#000" opacity="1">September</text><text text-anchor="middle" transform="translate(408.6202594810379,23)" font-family="sans-serif" font-size="10px" fill="#000" opacity="0">October</text><text text-anchor="middle" transform="translate(455.0898203592814,23)" font-family="sans-serif" font-size="10px" fill="#000" opacity="1">November</text><text text-anchor="end" transform="translate(500,23)" font-family="sans-serif" font-size="10px" fill="#000" opacity="0">December</text></g><g class="mark-rule role-axis-domain" pointer-events="none"><line transform="translate(0,0)" x2="500" y2="0" stroke="#888" stroke-width="1" opacity="1"/></g><g class="mark-text role-axis-title" pointer-events="none"><text text-anchor="middle" transform="translate(250,38)" font-family="sans-serif" font-size="11px" font-weight="bold" fill="#000" opacity="1">Month</text></g></g><path class="foreground" aria-hidden="true" d="" pointer-events="none" display="none"/></g></g><g class="mark-group role-axis" role="graphics-symbol" aria-roledescription="axis" aria-label="Y-axis titled 'Cases' for a linear scale with values from 0 to 22,000"><g transform="translate(0.5,0.5)"><path class="background" aria-hidden="true" d="M0,0h0v0h0Z" pointer-events="none"/><g><g class="mark-rule role-axis-tick" pointer-events="none"><line transform="translate(0,400)" x2="-5" y2="0" stroke="#888" stroke-width="0.5" opacity="1"/><line transform="translate(0,364)" x2="-5" y2="0" stroke="#888" stroke-width="0.5" opacity="1"/><line transform="translate(0,327)" x2="-5" y2="0" stroke="#888" stroke-width="0.5" opacity="1"/><line transform="translate(0,291)" x2="-5" y2="0" stroke="#888" stroke-width="0.5" opacity="1"/><line transform="translate(0,255)" x2="-5" y2="0" stroke="#888" stroke-width="0.5" opacity="1"/><line transform="translate(0,218)" x2="-5" y2="0" stroke="#888" stroke-width="0.5" opacity="1"/><line transform="translate(0,182)" x2="-5" y2="0" stroke="#888" stroke-width="0.5" opacity="1"/><line transform="translate(0,145)" x2="-5" y2="0" stroke="#888" stroke-width="0.5" opacity="1"/><line transform="translate(0,109)" x2="-5" y2="0" stroke="#888" stroke-width="0.5" opacity="1"/><line transform="translate(0,73)" x2="-5" y2="0" stroke="#888" stroke-width="0.5" opacity="1"/><line transform="translate(0,36)" x2="-5" y2="0" stroke="#888" stroke-width="0.5" opacity="1"/><line transform="translate(0,0)" x2="-5" y2="0" stroke="#888" stroke-width="0.5" opacity="1"/></g><g class="mark-text role-axis-label" pointer-events="none"><text text-anchor="end" transform="translate(-15,403)" font-family="sans-serif" font-size="10px" fill="#000" opacity="1">0</text><text text-anchor="end" transform="translate(-15,366.6363636363636)" font-family="sans-serif" font-size="10px" fill="#000" opacity="1">2,000</text><text text-anchor="end" transform="translate(-15,330.27272727272725)" font-family="sans-serif" font-size="10px" fill="#000" opacity="1">4,000</text><text text-anchor="end" transform="translate(-15,293.90909090909093)" font-family="sans-serif" font-size="10px" fill="#000" opacity="1">6,000</text><text text-anchor="end" transform="translate(-15,257.5454545454545)" font-family="sans-serif" font-size="10px" fill="#000" opacity="1">8,000</text><text text-anchor="end" transform="translate(-15,221.18181818181816)" font-family="sans-serif" font-size="10px" fill="#000" opacity="1">10,000</text><text text-anchor="end" transform="translate(-15,184.81818181818184)" font-family="sans-serif" font-size="10px" fill="#000" opacity="1">12,000</text><text text-anchor="end" transform="translate(-15,148.45454545454547)" font-family="sans-serif" font-size="10px" fill="#000" opacity="1">14,000</text><text text-anchor="end" transform="translate(-15,112.09090909090908)" font-family="sans-serif" font-size="10px" fill="#000" opacity="1">16,000</text><text text-anchor="end" transform="translate(-15,75.7272727272727)" font-family="sans-serif" font-size="10px" fill="#000" opacity="1">18,000</text><text text-anchor="end" transform="translate(-15,39.363636363636374)" font-family="sans-serif" font-size="10px" fill="#000" opacity="1">20,000</text><text text-anchor="end" transform="translate(-15,3)" font-family="sans-serif" font-size="10px" fill="#000" opacity="1">22,000</text></g><g class="mark-rule role-axis-domain" pointer-events="none"><line transform="translate(0,400)" x2="0" y2="-400" stroke="#888" stroke-width="1" opacity="1"/></g><g class="mark-text role-axis-title" pointer-events="none"><text text-anchor="middle" transform="translate(-49.5859375,200) rotate(-90) translate(0,-2)" font-family="sans-serif" font-size="11px" font-weight="bold" fill="#000" opacity="1">Cases</text></g></g><path class="foreground" aria-hidden="true" d="" pointer-events="none" display="none"/></g></g><g class="mark-line role-mark layer_0_marks" role="graphics-object" aria-roledescription="line mark container"><path aria-label="Month: Jan 01, 2017; Cases: 16868" role="graphics-symbol" aria-roledescription="line mark" d="M0,93.30909090909091L46.40718562874251,72.52727272727273L88.32335329341318,42.81818181818182L134.66816367265469,115.10909090909092L179.57834331337324,79.61818181818181L225.98552894211576,63.036363636363646L270.89570858283435,71.67272727272729L317.30289421157687,44.654545454545456L363.71007984031934,73.43636363636365L408.6202594810379,13.036363636363646L455.0898203592814,10.872727272727278L500,1.0909090909090757" stroke="#0D8A72" stroke-width="2"/></g><g class="mark-symbol role-mark layer_1_marks" role="graphics-object" aria-roledescription="symbol mark container"><path aria-label="Month: Jan 01, 2017; Cases: 16868" role="graphics-symbol" aria-roledescription="point" transform="translate(0,93.30909090909091)" d="M2.7386127875258306,0A2.7386127875258306,2.7386127875258306,0,1,1,-2.7386127875258306,0A2.7386127875258306,2.7386127875258306,0,1,1,2.7386127875258306,0" fill="white" stroke="#4c78a8" stroke-width="2" opacity="1"/><path aria-label="Month: Feb 01, 2017; Cases: 18011" role="graphics-symbol" aria-roledescription="point" transform="translate(46.40718562874251,72.52727272727273)" d="M2.7386127875258306,0A2.7386127875258306,2.7386127875258306,0,1,1,-2.7386127875258306,0A2.7386127875258306,2.7386127875258306,0,1,1,2.7386127875258306,0" fill="white" stroke="#4c78a8" stroke-width="2" opacity="1"/><path aria-label="Month: Mar 01, 2017; Cases: 19645" role="graphics-symbol" aria-roledescription="point" transform="translate(88.32335329341318,42.81818181818182)" d="M2.7386127875258306,0A2.7386127875258306,2.7386127875258306,0,1,1,-2.7386127875258306,0A2.7386127875258306,2.7386127875258306,0,1,1,2.7386127875258306,0" fill="white" stroke="#4c78a8" stroke-width="2" opacity="1"/><path aria-label="Month: Apr 01, 2017; Cases: 15669" role="graphics-symbol" aria-roledescription="point" transform="translate(134.66816367265469,115.10909090909092)" d="M2.7386127875258306,0A2.7386127875258306,2.7386127875258306,0,1,1,-2.7386127875258306,0A2.7386127875258306,2.7386127875258306,0,1,1,2.7386127875258306,0" fill="white" stroke="#4c78a8" stroke-width="2" opacity="1"/><path aria-label="Month: May 01, 2017; Cases: 17621" role="graphics-symbol" aria-roledescription="point" transform="translate(179.57834331337324,79.61818181818181)" d="M2.7386127875258306,0A2.7386127875258306,2.7386127875258306,0,1,1,-2.7386127875258306,0A2.7386127875258306,2.7386127875258306,0,1,1,2.7386127875258306,0" fill="white" stroke="#4c78a8" stroke-width="2" opacity="1"/><path aria-label="Month: Jun 01, 2017; Cases: 18533" role="graphics-symbol" aria-roledescription="point" transform="translate(225.98552894211576,63.036363636363646)" d="M2.7386127875258306,0A2.7386127875258306,2.7386127875258306,0,1,1,-2.7386127875258306,0A2.7386127875258306,2.7386127875258306,0,1,1,2.7386127875258306,0" fill="white" stroke="#4c78a8" stroke-width="2" opacity="1"/><path aria-label="Month: Jul 01, 2017; Cases: 18058" role="graphics-symbol" aria-roledescription="point" transform="translate(270.89570858283435,71.67272727272729)" d="M2.7386127875258306,0A2.7386127875258306,2.7386127875258306,0,1,1,-2.7386127875258306,0A2.7386127875258306,2.7386127875258306,0,1,1,2.7386127875258306,0" fill="white" stroke="#4c78a8" stroke-width="2" opacity="1"/><path aria-label="Month: Aug 01, 2017; Cases: 19544" role="graphics-symbol" aria-roledescription="point" transform="translate(317.30289421157687,44.654545454545456)" d="M2.7386127875258306,0A2.7386127875258306,2.7386127875258306,0,1,1,-2.7386127875258306,0A2.7386127875258306,2.7386127875258306,0,1,1,2.7386127875258306,0" fill="white" stroke="#4c78a8" stroke-width="2" opacity="1"/><path aria-label="Month: Sep 01, 2017; Cases: 17961" role="graphics-symbol" aria-roledescription="point" transform="translate(363.71007984031934,73.43636363636365)" d="M2.7386127875258306,0A2.7386127875258306,2.7386127875258306,0,1,1,-2.7386127875258306,0A2.7386127875258306,2.7386127875258306,0,1,1,2.7386127875258306,0" fill="white" stroke="#4c78a8" stroke-width="2" opacity="1"/><path aria-label="Month: Oct 01, 2017; Cases: 21283" role="graphics-symbol" aria-roledescription="point" transform="translate(408.6202594810379,13.036363636363646)" d="M2.7386127875258306,0A2.7386127875258306,2.7386127875258306,0,1,1,-2.7386127875258306,0A2.7386127875258306,2.7386127875258306,0,1,1,2.7386127875258306,0" fill="white" stroke="#4c78a8" stroke-width="2" opacity="1"/><path aria-label="Month: Nov 01, 2017; Cases: 21402" role="graphics-symbol" aria-roledescription="point" transform="translate(455.0898203592814,10.872727272727278)" d="M2.7386127875258306,0A2.7386127875258306,2.7386127875258306,0,1,1,-2.7386127875258306,0A2.7386127875258306,2.7386127875258306,0,1,1,2.7386127875258306,0" fill="white" stroke="#4c78a8" stroke-width="2" opacity="1"/><path aria-label="Month: Dec 01, 2017; Cases: 21940" role="graphics-symbol" aria-roledescription="point" transform="translate(500,1.0909090909090757)" d="M2.7386127875258306,0A2.7386127875258306,2.7386127875258306,0,1,1,-2.7386127875258306,0A2.7386127875258306,2.7386127875258306,0,1,1,2.7386127875258306,0" fill="white" stroke="#4c78a8" stroke-width="2" opacity="1"/></g></g><path class="foreground" aria-hidden="true" d="" display="none"/></g></g></g></svg>