<svg xmlns="http://www.w3.org/2000/svg" xmlns:xlink="http://www.w3.org/1999/xlink" version="1.1" class="marks" width="690" height="534" viewBox="0 0 690 534"><rect width="690" height="534" fill="#333"/><g fill="none" stroke-miterlimit="10" transform="translate(58,10)"><g class="mark-group role-frame root" role="graphics-object" aria-roledescription="group mark container"><g transform="translate(0,0)"><path class="background" aria-hidden="true" d="M0.5,0.5h500v400h-500Z" stroke="#ddd"/><g><g class="mark-group role-axis" aria-hidden="true"><g transform="translate(0.5,0.5)"><path class="background" aria-hidden="true" d="M0,0h0v0h0Z" pointer-events="none"/><g><g class="mark-rule role-axis-grid" pointer-events="none"><line transform="translate(0,400)" x2="500" y2="0" stroke="#888" stroke-width="1" opacity="1"/><line transform="translate(0,343)" x2="500" y2="0" stroke="#888" stroke-width="1" opacity="1"/><line transform="translate(0,286)" x2="500" y2="0" stroke="#888" stroke-width="1" opacity="1"/><line transform="translate(0,229)" x2="500" y2="0" stroke="#888" stroke-width="1" opacity="1"/><line transform="translate(0,171)" x2="500" y2="0" stroke="#888" stroke-width="1" opacity="1"/><line transform="translate(0,114)" x2="500" y2="0" stroke="#888" stroke-width="1" opacity="1"/><line transform="translate(0,57)" x2="500" y2="0" stroke="#888" stroke-width="1" opacity="1"/><line transform="translate(0,0)" x2="500" y2="0" stroke="#888" stroke-width="1" opacity="1"/></g></g><path class="foreground" aria-hidden="true" d="" pointer-events="none" display="none"/></g></g><g class="mark-group role-axis" role="graphics-symbol" aria-roledescription="axis" aria-label="X-axis titled 'City' for a discrete scale with 16 values: Alvaro Obregon, Azcapotzalco, Benito Juarez, Coyoacan, Cuajimalpa, ending with Xochimilco"><g transform="translate(0.5,400.5)"><path class="background" aria-hidden="true" d="M0,0h0v0h0Z" pointer-events="none"/><g><g class="mark-rule role-axis-tick" pointer-events="none"><line transform="translate(15,0)" x2="0" y2="5" stroke="#fff" stroke-width="1" opacity="1"/><line transform="translate(46,0)" x2="0" y2="5" stroke="#fff" stroke-width="1" opacity="1"/><line transform="translate(78,0)" x2="0" y2="5" stroke="#fff" stroke-width="1" opacity="1"/><line transform="translate(109,0)" x2="0" y2="5" stroke="#fff" stroke-width="1" opacity="1"/><line transform="translate(140,0)" x2="0" y2="5" stroke="#fff" stroke-width="1" opacity="1"/><line transform="translate(171,0)" x2="0" y2="5" stroke="#fff" stroke-width="1" opacity="1"/><line transform="translate(203,0)" x2="0" y2="5" stroke="#fff" stroke-width="1" opacity="1"/><line transform="translate(234,0)" x2="0" y2="5" stroke="#fff" stroke-width="1" opacity="1"/><line transform="translate(265,0)" x2="0" y2="5" stroke="#fff" stroke-width="1" opacity="1"/><line transform="translate(296,0)" x2="0" y2="5" stroke="#fff" stroke-width="1" opacity="1"/><line transform="translate(328,0)" x2="0" y2="5" stroke="#fff" stroke-width="1" opacity="1"/><line transform="translate(359,0)" x2="0" y2="5" stroke="#fff" stroke-width="1" opacity="1"/><line transform="translate(390,0)" x2="0" y2="5" stroke="#fff" stroke-width="1" opacity="1"/><line transform="translate(421,0)" x2="0" y2="5" stroke="#fff" stroke-width="1" opacity="1"/><line transform="translate(453,0)" x2="0" y2="5" stroke="#fff" stroke-width="1" opacity="1"/><line transform="translate(484,0)" x2="0" y2="5" stroke="#fff" stroke-width="1" opacity="1"/></g><g class="mark-text role-axis-label" pointer-events="none"><text text-anchor="start" transform="translate(15.125,7) rotate(90) translate(0,3)" font-family="sans-serif" font-size="10px" fill="#fff" opacity="1">Alvaro Obregon</text><text text-anchor="start" transform="translate(46.375,7) rotate(90) translate(0,3)" font-family="sans-serif" font-size="10px" fill="#fff" opacity="1">Azcapotzalco</text><text text-anchor="start" transform="translate(77.625,7) rotate(90) translate(0,3)" font-family="sans-serif" font-size="10px" fill="#fff" opacity="1">Benito Juarez</text><text text-anchor="start" transform="translate(108.875,7) rotate(90) translate(0,3)" font-family="sans-serif" font-size="10px" fill="#fff" opacity="1">Coyoacan</text><text text-anchor="start" transform="translate(140.125,7) rotate(90) translate(0,3)" font-family="sans-serif" font-size="10px" fill="#fff" opacity="1">Cuajimalpa</text><text text-anchor="start" transform="translate(171.375,7) rotate(90) translate(0,3)" font-family="sans-serif" font-size="10px" fill="#fff" opacity="1">Cuauhtemoc</text><text text-anchor="start" transform="translate(202.625,7) rotate(90) translate(0,3)" font-family="sans-serif" font-size="10px" fill="#fff" opacity="1">Gustavo A. Madero</text><text text-anchor="start" transform="translate(233.875,7) rotate(90) translate(0,3)" font-family="sans-serif" font-size="10px" fill="#fff" opacity="1">Iztacalco</text><text text-anchor="start" transform="translate(265.125,7) rotate(90) translate(0,3)" font-family="sans-serif" font-size="10px" fill="#fff" opacity="1">Iztapalapa</text><text text-anchor="start" transform="translate(296.375,7) rotate(90) translate(0,3)" font-family="sans-serif" font-size="10px" fill="#fff" opacity="1">Magdalena Contreras</text><text text-anchor="start" transform="translate(327.625,7) rotate(90) translate(0,3)" font-family="sans-serif" font-size="10px" fill="#fff" opacity="1">Miguel Hidalgo</text><text text-anchor="start" transform="translate(358.875,7) rotate(90) translate(0,3)" font-family="sans-serif" font-size="10px" fill="#fff" opacity="1">Milpa Alta</text><text text-anchor="start" transform="translate(390.125,7) rotate(90) translate(0,3)" font-family="sans-serif" font-size="10px" fill="#fff" opacity="1">Tlahuac</text><text text-anchor="start" transform="translate(421.375,7) rotate(90) translate(0,3)" font-family="sans-serif" font-size="10px" fill="#fff" opacity="1">Tlalplan</text><text text-anchor="start" transform="translate(452.625,7) rotate(90) translate(0,3)" font-family="sans-serif" font-size="10px" fill="#fff" opacity="1">Venustiano Carranza</text><text text-anchor="start" transform="translate(483.875,7) rotate(90) translate(0,3)" font-family="sans-serif" font-size="10px" fill="#fff" opacity="1">Xochimilco</text></g><g class="mark-rule role-axis-domain" pointer-events="none"><line transform="translate(0,0)" x2="500" y2="0" stroke="#fff" stroke-width="1" opacity="1"/></g><g class="mark-text role-axis-title" pointer-events="none"><text text-anchor="middle" transform="translate(250,116.1669921875)" font-family="sans-serif" font-size="11px" font-weight="bold" fill="#fff" opacity="1">City</text></g></g><path class="foreground" aria-hidden="true" d="" pointer-events="none" display="none"/></g></g><g class="mark-group role-axis" role="graphics-symbol" aria-roledescription="axis" aria-label="Y-axis titled 'Number of accidents' for a linear scale with values from 0 to 35,000"><g transform="translate(0.5,0.5)"><path class="background" aria-hidden="true" d="M0,0h0v0h0Z" pointer-events="none"/><g><g class="mark-rule role-axis-tick" pointer-events="none"><line transform="translate(0,400)" x2="-5" y2="0" stroke="#fff" stroke-width="1" opacity="1"/><line transform="translate(0,343)" x2="-5" y2="0" stroke="#fff" stroke-width="1" opacity="1"/><line transform="translate(0,286)" x2="-5" y2="0" stroke="#fff" stroke-width="1" opacity="1"/><line transform="translate(0,229)" x2="-5" y2="0" stroke="#fff" stroke-width="1" opacity="1"/><line transform="translate(0,171)" x2="-5" y2="0" stroke="#fff" stroke-width="1" opacity="1"/><line transform="translate(0,114)" x2="-5" y2="0" stroke="#fff" stroke-width="1" opacity="1"/><line transform="translate(0,57)" x2="-5" y2="0" stroke="#fff" stroke-width="1" opacity="1"/><line transform="translate(0,0)" x2="-5" y2="0" stroke="#fff" stroke-width="1" opacity="1"/></g><g class="mark-text role-axis-label" pointer-events="none"><text text-anchor="end" transform="translate(-7,403)" font-family="sans-serif" font-size="10px" fill="#fff" opacity="1">0</text><text text-anchor="end" transform="translate(-7,345.8571428571429)" font-family="sans-serif" font-size="10px" fill="#fff" opacity="1">5,000</text><text text-anchor="end" transform="translate(-7,288.7142857142857)" font-family="sans-serif" font-size="10px" fill="#fff" opacity="1">10,000</text><text text-anchor="end" transform="translate(-7,231.57142857142856)" font-family="sans-serif" font-size="10px" fill="#fff" opacity="1">15,000</text><text text-anchor="end" transform="translate(-7,174.42857142857144)" font-family="sans-serif" font-size="10px" fill="#fff" opacity="1">20,000</text><text text-anchor="end" transform="translate(-7,117.28571428571428)" font-family="sans-serif" font-size="10px" fill="#fff" opacity="1">25,000</text><text text-anchor="end" transform="translate(-7,60.14285714285716)" font-family="sans-serif" font-size="10px" fill="#fff" opacity="1">30,000</text><text text-anchor="end" transform="translate(-7,3)" font-family="sans-serif" font-size="10px" fill="#fff" opacity="1">35,000</text></g><g class="mark-rule role-axis-domain" pointer-events="none"><line transform="translate(0,400)" x2="0" y2="-400" stroke="#fff" stroke-width="1" opacity="1"/></g><g class="mark-text role-axis-title" pointer-events="none"><text text-anchor="middle" transform="translate(-41.5859375,200) rotate(-90) translate(0,-2)" font-family="sans-serif" font-size="11px" font-weight="bold" fill="#fff" opacity="1">Number of accidents</text></g></g><path class="foreground" aria-hidden="true" d="" pointer-events="none" display="none"/></g></g><g class="mark-rect role-mark marks" role="graphics-object" aria-roledescription="rect mark container"><path aria-label="City: Alvaro Obregon; Number of accidents: 15636" role="graphics-symbol" aria-roledescription="bar" d="M1.5625,221.30285714285716h28.125v178.69714285714284h-28.125Z" fill="#bab0ac"/><path aria-label="City: Azcapotzalco; Number of accidents: 8844" role="graphics-symbol" aria-roledescription="bar" d="M32.8125,298.92571428571426h28.125v101.07428571428574h-28.125Z" fill="#eeca3b"/><path aria-label="City: Benito Juarez; Number of accidents: 16294" role="graphics-symbol" aria-roledescription="bar" d="M64.0625,213.78285714285715h28.125v186.21714285714285h-28.125Z" fill="#4c78a8"/><path aria-label="City: Coyoacan; Number of accidents: 16536" role="graphics-symbol" aria-roledescription="bar" d="M95.3125,211.01714285714283h28.125v188.98285714285717h-28.125Z" fill="#f58518"/><path aria-label="City: Cuajimalpa; Number of accidents: 4082" role="graphics-symbol" aria-roledescription="bar" d="M126.5625,353.34857142857146h28.125v46.65142857142854h-28.125Z" fill="#e45756"/><path aria-label="City: Cuauhtemoc; Number of accidents: 20524" role="graphics-symbol" aria-roledescription="bar" d="M157.8125,165.44h28.125v234.56h-28.125Z" fill="#54a24b"/><path aria-label="City: Gustavo A. Madero; Number of accidents: 20298" role="graphics-symbol" aria-roledescription="bar" d="M189.0625,168.02285714285716h28.125v231.97714285714284h-28.125Z" fill="#72b7b2"/><path aria-label="City: Iztacalco; Number of accidents: 8873" role="graphics-symbol" aria-roledescription="bar" d="M220.3125,298.5942857142857h28.125v101.40571428571428h-28.125Z" fill="#b279a2"/><path aria-label="City: Iztapalapa; Number of accidents: 33235" role="graphics-symbol" aria-roledescription="bar" d="M251.5625,20.17142857142855h28.125v379.8285714285714h-28.125Z" fill="#eeca3b"/><path aria-label="City: Magdalena Contreras; Number of accidents: 3148" role="graphics-symbol" aria-roledescription="bar" d="M282.8125,364.02285714285716h28.125v35.97714285714284h-28.125Z" fill="#f58518"/><path aria-label="City: Miguel Hidalgo; Number of accidents: 16719" role="graphics-symbol" aria-roledescription="bar" d="M314.0625,208.9257142857143h28.125v191.0742857142857h-28.125Z" fill="#e45756"/><path aria-label="City: Milpa Alta; Number of accidents: 1101" role="graphics-symbol" aria-roledescription="bar" d="M345.3125,387.41714285714284h28.125v12.582857142857165h-28.125Z" fill="#4c78a8"/><path aria-label="City: Tlahuac; Number of accidents: 5129" role="graphics-symbol" aria-roledescription="bar" d="M376.5625,341.3828571428572h28.125v58.617142857142824h-28.125Z" fill="#72b7b2"/><path aria-label="City: Tlalplan; Number of accidents: 14879" role="graphics-symbol" aria-roledescription="bar" d="M407.8125,229.95428571428567h28.125v170.04571428571433h-28.125Z" fill="#9d755d"/><path aria-label="City: Venustiano Carranza; Number of accidents: 14335" role="graphics-symbol" aria-roledescription="bar" d="M439.0625,236.17142857142858h28.125v163.82857142857142h-28.125Z" fill="#ff9da6"/><path aria-label="City: Xochimilco; Number of accidents: 7982" role="graphics-symbol" aria-roledescription="bar" d="M470.3125,308.77714285714285h28.125v91.22285714285715h-28.125Z" fill="#54a24b"/></g><g class="mark-group role-legend" role="graphics-symbol" aria-roledescription="legend" aria-label="Symbol legend titled 'Number of accidents' for fill color with 16 values: 1101, 3148, 4082, 5129, 7982, ending with 33235"><g transform="translate(518,0)"><path class="background" aria-hidden="true" d="M0,0h109v222h-109Z" pointer-events="none"/><g><g class="mark-group role-legend-entry"><g transform="translate(0,16)"><path class="background" aria-hidden="true" d="M0,0h0v0h0Z" pointer-events="none"/><g><g class="mark-group role-scope" role="graphics-object" aria-roledescription="group mark container"><g transform="translate(0,0)"><path class="background" aria-hidden="true" d="M0,0h43.8076171875v11h-43.8076171875Z" pointer-events="none" opacity="1"/><g><g class="mark-symbol role-legend-symbol" pointer-events="none"><path transform="translate(6,6)" d="M-5,-5h10v10h-10Z" fill="#4c78a8" stroke-width="1.5" opacity="1"/></g><g class="mark-text role-legend-label" pointer-events="none"><text text-anchor="start" transform="translate(16,9)" font-family="sans-serif" font-size="10px" fill="#fff" opacity="1">1101</text></g></g><path class="foreground" aria-hidden="true" d="" pointer-events="none" display="none"/></g><g transform="translate(0,13)"><path class="background" aria-hidden="true" d="M0,0h43.8076171875v11h-43.8076171875Z" pointer-events="none" opacity="1"/><g><g class="mark-symbol role-legend-symbol" pointer-events="none"><path transform="translate(6,6)" d="M-5,-5h10v10h-10Z" fill="#f58518" stroke-width="1.5" opacity="1"/></g><g class="mark-text role-legend-label" pointer-events="none"><text text-anchor="start" transform="translate(16,9)" font-family="sans-serif" font-size="10px" fill="#fff" opacity="1">3148</text></g></g><path class="foreground" aria-hidden="true" d="" pointer-events="none" display="none"/></g><g transform="translate(0,26)"><path class="background" aria-hidden="true" d="M0,0h43.8076171875v11h-43.8076171875Z" pointer-events="none" opacity="1"/><g><g class="mark-symbol role-legend-symbol" pointer-events="none"><path transform="translate(6,6)" d="M-5,-5h10v10h-10Z" fill="#e45756" stroke-width="1.5" opacity="1"/></g><g class="mark-text role-legend-label" pointer-events="none"><text text-anchor="start" transform="translate(16,9)" font-family="sans-serif" font-size="10px" fill="#fff" opacity="1">4082</text></g></g><path class="foreground" aria-hidden="true" d="" pointer-events="none" display="none"/></g><g transform="translate(0,39)"><path class="background" aria-hidden="true" d="M0,0h43.8076171875v11h-43.8076171875Z" pointer-events="none" opacity="1"/><g><g class="mark-symbol role-legend-symbol" pointer-events="none"><path transform="translate(6,6)" d="M-5,-5h10v10h-10Z" fill="#72b7b2" stroke-width="1.5" opacity="1"/></g><g class="mark-text role-legend-label" pointer-events="none"><text text-anchor="start" transform="translate(16,9)" font-family="sans-serif" font-size="10px" fill="#fff" opacity="1">5129</text></g></g><path class="foreground" aria-hidden="true" d="" pointer-events="none" display="none"/></g><g transform="translate(0,52)"><path class="background" aria-hidden="true" d="M0,0h43.8076171875v11h-43.8076171875Z" pointer-events="none" opacity="1"/><g><g class="mark-symbol role-legend-symbol" pointer-events="none"><path transform="translate(6,6)" d="M-5,-5h10v10h-10Z" fill="#54a24b" stroke-width="1.5" opacity="1"/></g><g class="mark-text role-legend-label" pointer-events="none"><text text-anchor="start" transform="translate(16,9)" font-family="sans-serif" font-size="10px" fill="#fff" opacity="1">7982</text></g></g><path class="foreground" aria-hidden="true" d="" pointer-events="none" display="none"/></g><g transform="translate(0,65)"><path class="background" aria-hidden="true" d="M0,0h43.8076171875v11h-43.8076171875Z" pointer-events="none" opacity="1"/><g><g class="mark-symbol role-legend-symbol" pointer-events="none"><path transform="translate(6,6)" d="M-5,-5h10v10h-10Z" fill="#eeca3b" stroke-width="1.5" opacity="1"/></g><g class="mark-text role-legend-label" pointer-events="none"><text text-anchor="start" transform="translate(16,9)" font-family="sans-serif" font-size="10px" fill="#fff" opacity="1">8844</text></g></g><path class="foreground" aria-hidden="true" d="" pointer-events="none" display="none"/></g><g transform="translate(0,78)"><path class="background" aria-hidden="true" d="M0,0h43.8076171875v11h-43.8076171875Z" pointer-events="none" opacity="1"/><g><g class="mark-symbol role-legend-symbol" pointer-events="none"><path transform="translate(6,6)" d="M-5,-5h10v10h-10Z" fill="#b279a2" stroke-width="1.5" opacity="1"/></g><g class="mark-text role-legend-label" pointer-events="none"><text text-anchor="start" transform="translate(16,9)" font-family="sans-serif" font-size="10px" fill="#fff" opacity="1">8873</text></g></g><path class="foreground" aria-hidden="true" d="" pointer-events="none" display="none"/></g><g transform="translate(0,91)"><path class="background" aria-hidden="true" d="M0,0h43.8076171875v11h-43.8076171875Z" pointer-events="none" opacity="1"/><g><g class="mark-symbol role-legend-symbol" pointer-events="none"><path transform="translate(6,6)" d="M-5,-5h10v10h-10Z" fill="#ff9da6" stroke-width="1.5" opacity="1"/></g><g class="mark-text role-legend-label" pointer-events="none"><text text-anchor="start" transform="translate(16,9)" font-family="sans-serif" font-size="10px" fill="#fff" opacity="1">14335</text></g></g><path class="foreground" aria-hidden="true" d="" pointer-events="none" display="none"/></g><g transform="translate(0,104)"><path class="background" aria-hidden="true" d="M0,0h43.8076171875v11h-43.8076171875Z" pointer-events="none" opacity="1"/><g><g class="mark-symbol role-legend-symbol" pointer-events="none"><path transform="translate(6,6)" d="M-5,-5h10v10h-10Z" fill="#9d755d" stroke-width="1.5" opacity="1"/></g><g class="mark-text role-legend-label" pointer-events="none"><text text-anchor="start" transform="translate(16,9)" font-family="sans-serif" font-size="10px" fill="#fff" opacity="1">14879</text></g></g><path class="foreground" aria-hidden="true" d="" pointer-events="none" display="none"/></g><g transform="translate(0,117)"><path class="background" aria-hidden="true" d="M0,0h43.8076171875v11h-43.8076171875Z" pointer-events="none" opacity="1"/><g><g class="mark-symbol role-legend-symbol" pointer-events="none"><path transform="translate(6,6)" d="M-5,-5h10v10h-10Z" fill="#bab0ac" stroke-width="1.5" opacity="1"/></g><g class="mark-text role-legend-label" pointer-events="none"><text text-anchor="start" transform="translate(16,9)" font-family="sans-serif" font-size="10px" fill="#fff" opacity="1">15636</text></g></g><path class="foreground" aria-hidden="true" d="" pointer-events="none" display="none"/></g><g transform="translate(0,130)"><path class="background" aria-hidden="true" d="M0,0h43.8076171875v11h-43.8076171875Z" pointer-events="none" opacity="1"/><g><g class="mark-symbol role-legend-symbol" pointer-events="none"><path transform="translate(6,6)" d="M-5,-5h10v10h-10Z" fill="#4c78a8" stroke-width="1.5" opacity="1"/></g><g class="mark-text role-legend-label" pointer-events="none"><text text-anchor="start" transform="translate(16,9)" font-family="sans-serif" font-size="10px" fill="#fff" opacity="1">16294</text></g></g><path class="foreground" aria-hidden="true" d="" pointer-events="none" display="none"/></g><g transform="translate(0,143)"><path class="background" aria-hidden="true" d="M0,0h43.8076171875v11h-43.8076171875Z" pointer-events="none" opacity="1"/><g><g class="mark-symbol role-legend-symbol" pointer-events="none"><path transform="translate(6,6)" d="M-5,-5h10v10h-10Z" fill="#f58518" stroke-width="1.5" opacity="1"/></g><g class="mark-text role-legend-label" pointer-events="none"><text text-anchor="start" transform="translate(16,9)" font-family="sans-serif" font-size="10px" fill="#fff" opacity="1">16536</text></g></g><path class="foreground" aria-hidden="true" d="" pointer-events="none" display="none"/></g><g transform="translate(0,156)"><path class="background" aria-hidden="true" d="M0,0h43.8076171875v11h-43.8076171875Z" pointer-events="none" opacity="1"/><g><g class="mark-symbol role-legend-symbol" pointer-events="none"><path transform="translate(6,6)" d="M-5,-5h10v10h-10Z" fill="#e45756" stroke-width="1.5" opacity="1"/></g><g class="mark-text role-legend-label" pointer-events="none"><text text-anchor="start" transform="translate(16,9)" font-family="sans-serif" font-size="10px" fill="#fff" opacity="1">16719</text></g></g><path class="foreground" aria-hidden="true" d="" pointer-events="none" display="none"/></g><g transform="translate(0,169)"><path class="background" aria-hidden="true" d="M0,0h43.8076171875v11h-43.8076171875Z" pointer-events="none" opacity="1"/><g><g class="mark-symbol role-legend-symbol" pointer-events="none"><path transform="translate(6,6)" d="M-5,-5h10v10h-10Z" fill="#72b7b2" stroke-width="1.5" opacity="1"/></g><g class="mark-text role-legend-label" pointer-events="none"><text text-anchor="start" transform="translate(16,9)" font-family="sans-serif" font-size="10px" fill="#fff" opacity="1">20298</text></g></g><path class="foreground" aria-hidden="true" d="" pointer-events="none" display="none"/></g><g transform="translate(0,182)"><path class="background" aria-hidden="true" d="M0,0h43.8076171875v11h-43.8076171875Z" pointer-events="none" opacity="1"/><g><g class="mark-symbol role-legend-symbol" pointer-events="none"><path transform="translate(6,6)" d="M-5,-5h10v10h-10Z" fill="#54a24b" stroke-width="1.5" opacity="1"/></g><g class="mark-text role-legend-label" pointer-events="none"><text text-anchor="start" transform="translate(16,9)" font-family="sans-serif" font-size="10px" fill="#fff" opacity="1">20524</text></g></g><path class="foreground" aria-hidden="true" d="" pointer-events="none" display="none"/></g><g transform="translate(0,195)"><path class="background" aria-hidden="true" d="M0,0h43.8076171875v11h-43.8076171875Z" pointer-events="none" opacity="1"/><g><g class="mark-symbol role-legend-symbol" pointer-events="none"><path transform="translate(6,6)" d="M-5,-5h10v10h-10Z" fill="#eeca3b" stroke-width="1.5" opacity="1"/></g><g class="mark-text role-legend-label" pointer-events="none"><text text-anchor="start" transform="translate(16,9)" font-family="sans-serif" font-size="10px" fill="#fff" opacity="1">33235</text></g></g><path class="foreground" aria-hidden="true" d="" pointer-events="none" display="none"/></g></g></g><path class="foreground" aria-hidden="true" d="" pointer-events="none" display="none"/></g></g><g class="mark-text role-legend-title" pointer-events="none"><text text-anchor="start" transform="translate(0,9)" font-family="sans-serif" font-size="11px" font-weight="bold" fill="#fff" opacity="1">Number of accidents</text></g></g><path class="foreground" aria-hidden="true" d="" pointer-events="none" display="none"/></g></g></g><path class="foreground" aria-hidden="true" d="" display="none"/></g></g></g></svg>