<svg xmlns="http://www.w3.org/2000/svg" xmlns:xlink="http://www.w3.org/1999/xlink" version="1.1" class="marks" width="576" height="455" viewBox="0 0 576 455"><rect width="576" height="455" fill="#99A3A4"/><g fill="none" stroke-miterlimit="10" transform="translate(66,10)"><g class="mark-group role-frame root" role="graphics-object" aria-roledescription="group mark container"><g transform="translate(0,0)"><path class="background" aria-hidden="true" d="M0.5,0.5h500v400h-500Z" stroke="#ddd"/><g><g class="mark-group role-axis" aria-hidden="true"><g transform="translate(0.5,400.5)"><path class="background" aria-hidden="true" d="M0,0h0v0h0Z" pointer-events="none"/><g><g class="mark-rule role-axis-grid" pointer-events="none"><line transform="translate(0,-400)" x2="0" y2="400" stroke="#000000" stroke-opacity="1" stroke-width="0.5" opacity="1"/><line transform="translate(46,-400)" x2="0" y2="400" stroke="#000000" stroke-opacity="1" stroke-width="0.5" opacity="1"/><line transform="translate(88,-400)" x2="0" y2="400" stroke="#000000" stroke-opacity="1" stroke-width="0.5" opacity="1"/><line transform="translate(135,-400)" x2="0" y2="400" stroke="#000000" stroke-opacity="1" stroke-width="0.5" opacity="1"/><line transform="translate(180,-400)" x2="0" y2="400" stroke="#000000" stroke-opacity="1" stroke-width="0.5" opacity="1"/><line transform="translate(226,-400)" x2="0" y2="400" stroke="#000000" stroke-opacity="1" stroke-width="0.5" opacity="1"/><line transform="translate(271,-400)" x2="0" y2="400" stroke="#000000" stroke-opacity="1" stroke-width="0.5" opacity="1"/><line transform="translate(317,-400)" x2="0" y2="400" stroke="#000000" stroke-opacity="1" stroke-width="0.5" opacity="1"/><line transform="translate(364,-400)" x2="0" y2="400" stroke="#000000" stroke-opacity="1" stroke-width="0.5" opacity="1"/><line transform="translate(409,-400)" x2="0" y2="400" stroke="#000000" stroke-opacity="1" stroke-width="0.5" opacity="1"/><line transform="translate(455,-400)" x2="0" y2="400" stroke="#000000" stroke-opacity="1" stroke-width="0.5" opacity="1"/><line transform="translate(500,-400)" x2="0" y2="400" stroke="#000000" stroke-opacity="1" stroke-width="0.5" opacity="1"/></g></g><path class="foreground" aria-hidden="true" d="" pointer-events="none" display="none"/></g></g><g class="mark-group role-axis" aria-hidden="true"><g transform="translate(0.5,0.5)"><path class="background" aria-hidden="true" d="M0,0h0v0h0Z" pointer-events="none"/><g><g class="mark-rule role-axis-grid" pointer-events="none"><line transform="translate(0,400)" x2="500" y2="0" stroke="#000000" stroke-opacity="1" stroke-width="0.5" opacity="1"/><line transform="translate(0,367)" x2="500" y2="0" stroke="#000000" stroke-opacity="1" stroke-width="0.5" opacity="1"/><line transform="translate(0,333)" x2="500" y2="0" stroke="#000000" stroke-opacity="1" stroke-width="0.5" opacity="1"/><line transform="translate(0,300)" x2="500" y2="0" stroke="#000000" stroke-opacity="1" stroke-width="0.5" opacity="1"/><line transform="translate(0,267)" x2="500" y2="0" stroke="#000000" stroke-opacity="1" stroke-width="0.5" opacity="1"/><line transform="translate(0,233)" x2="500" y2="0" stroke="#000000" stroke-opacity="1" stroke-width="0.5" opacity="1"/><line transform="translate(0,200)" x2="500" y2="0" stroke="#000000" stroke-opacity="1" stroke-width="0.5" opacity="1"/><line transform="translate(0,167)" x2="500" y2="0" stroke="#000000" stroke-opacity="1" stroke-width="0.5" opacity="1"/><line transform="translate(0,133)" x2="500" y2="0" stroke="#000000" stroke-opacity="1" stroke-width="0.5" opacity="1"/><line transform="translate(0,100)" x2="500" y2="0" stroke="#000000" stroke-opacity="1" stroke-width="0.5" opacity="1"/><line transform="translate(0,67)" x2="500" y2="0" stroke="#000000" stroke-opacity="1" stroke-width="0.5" opacity="1"/><line transform="translate(0,33)" x2="500" y2="0" stroke="#000000" stroke-opacity="1" stroke-width="0.5" opacity="1"/><line transform="translate(0,0)" x2="500" y2="0" stroke="#000000" stroke-opacity="1" stroke-width="0.5" opacity="1"/></g></g><path class="foreground" aria-hidden="true" d="" pointer-events="none" display="none"/></g></g><g class="mark-group role-axis" role="graphics-symbol" aria-roledescription="axis" aria-label="X-axis titled 'Month' for a time scale with values from Monday, 01 January 2018, 12:00:00 AM to Saturday, 01 December 2018, 12:00:00 AM"><g transform="translate(0.5,400.5)"><path class="background" aria-hidden="true" d="M0,0h0v0h0Z" pointer-events="none"/><g><g class="mark-rule role-axis-tick" pointer-events="none"><line transform="translate(0,0)" x2="0" y2="5" stroke="#888" stroke-width="0.5" opacity="1"/><line transform="translate(46,0)" x2="0" y2="5" stroke="#888" stroke-width="0.5" opacity="1"/><line transform="translate(88,0)" x2="0" y2="5" stroke="#888" stroke-width="0.5" opacity="1"/><line transform="translate(135,0)" x2="0" y2="5" stroke="#888" stroke-width="0.5" opacity="1"/><line transform="translate(180,0)" x2="0" y2="5" stroke="#888" stroke-width="0.5" opacity="1"/><line transform="translate(226,0)" x2="0" y2="5" stroke="#888" stroke-width="0.5" opacity="1"/><line transform="translate(271,0)" x2="0" y2="5" stroke="#888" stroke-width="0.5" opacity="1"/><line transform="translate(317,0)" x2="0" y2="5" stroke="#888" stroke-width="0.5" opacity="1"/><line transform="translate(364,0)" x2="0" y2="5" stroke="#888" stroke-width="0.5" opacity="1"/><line transform="translate(409,0)" x2="0" y2="5" stroke="#888" stroke-width="0.5" opacity="1"/><line transform="translate(455,0)" x2="0" y2="5" stroke="#888" stroke-width="0.5" opacity="1"/><line transform="translate(500,0)" x2="0" y2="5" stroke="#888" stroke-width="0.5" opacity="1"/></g><g class="mark-text role-axis-label" pointer-events="none"><text text-anchor="start" transform="translate(0,23)" font-family="sans-serif" font-size="10px" fill="#000" opacity="1">2018</text><text text-anchor="middle" transform="translate(46.40718562874251,23)" font-family="sans-serif" font-size="10px" fill="#000" opacity="0">February</text><text text-anchor="middle" transform="translate(88.32335329341318,23)" font-family="sans-serif" font-size="10px" fill="#000" opacity="1">March</text><text text-anchor="middle" transform="translate(134.66816367265469,23)" font-family="sans-serif" font-size="10px" fill="#000" opacity="0">April</text><text text-anchor="middle" transform="translate(179.57834331337324,23)" font-family="sans-serif" font-size="10px" fill="#000" opacity="1">May</text><text text-anchor="middle" transform="translate(225.98552894211576,23)" font-family="sans-serif" font-size="10px" fill="#000" opacity="0">June</text><text text-anchor="middle" transform="translate(270.89570858283435,23)" font-family="sans-serif" font-size="10px" fill="#000" opacity="1">July</text><text text-anchor="middle" transform="translate(317.30289421157687,23)" font-family="sans-serif" font-size="10px" fill="#000" opacity="0">August</text><text text-anchor="middle" transform="translate(363.71007984031934,23)" font-family="sans-serif" font-size="10px" fill="#000" opacity="1">September</text><text text-anchor="middle" transform="translate(408.6202594810379,23)" font-family="sans-serif" font-size="10px" fill="#000" opacity="0">October</text><text text-anchor="middle" transform="translate(455.0898203592814,23)" font-family="sans-serif" font-size="10px" fill="#000" opacity="1">November</text><text text-anchor="end" transform="translate(500,23)" font-family="sans-serif" font-size="10px" fill="#000" opacity="0">December</text></g><g class="mark-rule role-axis-domain" pointer-events="none"><line transform="translate(0,0)" x2="500" y2="0" stroke="#888" stroke-width="1" opacity="1"/></g><g class="mark-text role-axis-title" pointer-events="none"><text text-anchor="middle" transform="translate(250,38)" font-family="sans-serif" font-size="11px" font-weight="bold" fill="#000" opacity="1">Month</text></g></g><path class="foreground" aria-hidden="true" d="" pointer-events="none" display="none"/></g></g><g class="mark-group role-axis" role="graphics-symbol" aria-roledescription="axis" aria-label="Y-axis titled 'Cases' for a linear scale with values from 0 to 24,000"><g transform="translate(0.5,0.5)"><path class="background" aria-hidden="true" d="M0,0h0v0h0Z" pointer-events="none"/><g><g class="mark-rule role-axis-tick" pointer-events="none"><line transform="translate(0,400)" x2="-5" y2="0" stroke="#888" stroke-width="0.5" opacity="1"/><line transform="translate(0,367)" x2="-5" y2="0" stroke="#888" stroke-width="0.5" opacity="1"/><line transform="translate(0,333)" x2="-5" y2="0" stroke="#888" stroke-width="0.5" opacity="1"/><line transform="translate(0,300)" x2="-5" y2="0" stroke="#888" stroke-width="0.5" opacity="1"/><line transform="translate(0,267)" x2="-5" y2="0" stroke="#888" stroke-width="0.5" opacity="1"/><line transform="translate(0,233)" x2="-5" y2="0" stroke="#888" stroke-width="0.5" opacity="1"/><line transform="translate(0,200)" x2="-5" y2="0" stroke="#888" stroke-width="0.5" opacity="1"/><line transform="translate(0,167)" x2="-5" y2="0" stroke="#888" stroke-width="0.5" opacity="1"/><line transform="translate(0,133)" x2="-5" y2="0" stroke="#888" stroke-width="0.5" opacity="1"/><line transform="translate(0,100)" x2="-5" y2="0" stroke="#888" stroke-width="0.5" opacity="1"/><line transform="translate(0,67)" x2="-5" y2="0" stroke="#888" stroke-width="0.5" opacity="1"/><line transform="translate(0,33)" x2="-5" y2="0" stroke="#888" stroke-width="0.5" opacity="1"/><line transform="translate(0,0)" x2="-5" y2="0" stroke="#888" stroke-width="0.5" opacity="1"/></g><g class="mark-text role-axis-label" pointer-events="none"><text text-anchor="end" transform="translate(-15,403)" font-family="sans-serif" font-size="10px" fill="#000" opacity="1">0</text><text text-anchor="end" transform="translate(-15,369.66666666666663)" font-family="sans-serif" font-size="10px" fill="#000" opacity="1">2,000</text><text text-anchor="end" transform="translate(-15,336.33333333333337)" font-family="sans-serif" font-size="10px" fill="#000" opacity="1">4,000</text><text text-anchor="end" transform="translate(-15,303)" font-family="sans-serif" font-size="10px" fill="#000" opacity="1">6,000</text><text text-anchor="end" transform="translate(-15,269.6666666666667)" font-family="sans-serif" font-size="10px" fill="#000" opacity="1">8,000</text><text text-anchor="end" transform="translate(-15,236.33333333333331)" font-family="sans-serif" font-size="10px" fill="#000" opacity="1">10,000</text><text text-anchor="end" transform="translate(-15,203)" font-family="sans-serif" font-size="10px" fill="#000" opacity="1">12,000</text><text text-anchor="end" transform="translate(-15,169.66666666666666)" font-family="sans-serif" font-size="10px" fill="#000" opacity="1">14,000</text><text text-anchor="end" transform="translate(-15,136.33333333333334)" font-family="sans-serif" font-size="10px" fill="#000" opacity="1">16,000</text><text text-anchor="end" transform="translate(-15,103)" font-family="sans-serif" font-size="10px" fill="#000" opacity="1">18,000</text><text text-anchor="end" transform="translate(-15,69.66666666666666)" font-family="sans-serif" font-size="10px" fill="#000" opacity="1">20,000</text><text text-anchor="end" transform="translate(-15,36.33333333333335)" font-family="sans-serif" font-size="10px" fill="#000" opacity="1">22,000</text><text text-anchor="end" transform="translate(-15,3)" font-family="sans-serif" font-size="10px" fill="#000" opacity="1">24,000</text></g><g class="mark-rule role-axis-domain" pointer-events="none"><line transform="translate(0,400)" x2="0" y2="-400" stroke="#888" stroke-width="1" opacity="1"/></g><g class="mark-text role-axis-title" pointer-events="none"><text text-anchor="middle" transform="translate(-49.5859375,200) rotate(-90) translate(0,-2)" font-family="sans-serif" font-size="11px" font-weight="bold" fill="#000" opacity="1">Cases</text></g></g><path class="foreground" aria-hidden="true" d="" pointer-events="none" display="none"/></g></g><g class="mark-line role-mark layer_0_marks" role="graphics-object" aria-roledescription="line mark container"><path aria-label="Month: Jan 01, 2018; Cases: 17829" role="graphics-symbol" aria-roledescription="line mark" d="M0,102.85000000000002L46.40718562874251,91.43333333333334L88.32335329341318,68.36666666666669L134.66816367265469,63.61666666666665L179.57834331337324,29.716666666666658L225.98552894211576,51.78333333333334L270.89570858283435,78.68333333333335L317.30289421157687,40.96666666666668L363.71007984031934,47.849999999999994L408.6202594810379,28.849999999999998L455.0898203592814,54.49999999999999L500,39.19999999999999" stroke="#0D8A72" stroke-width="2"/></g><g class="mark-symbol role-mark layer_1_marks" role="graphics-object" aria-roledescription="symbol mark container"><path aria-label="Month: Jan 01, 2018; Cases: 17829" role="graphics-symbol" aria-roledescription="point" transform="translate(0,102.85000000000002)" d="M2.7386127875258306,0A2.7386127875258306,2.7386127875258306,0,1,1,-2.7386127875258306,0A2.7386127875258306,2.7386127875258306,0,1,1,2.7386127875258306,0" fill="white" stroke="#4c78a8" stroke-width="2" opacity="1"/><path aria-label="Month: Feb 01, 2018; Cases: 18514" role="graphics-symbol" aria-roledescription="point" transform="translate(46.40718562874251,91.43333333333334)" d="M2.7386127875258306,0A2.7386127875258306,2.7386127875258306,0,1,1,-2.7386127875258306,0A2.7386127875258306,2.7386127875258306,0,1,1,2.7386127875258306,0" fill="white" stroke="#4c78a8" stroke-width="2" opacity="1"/><path aria-label="Month: Mar 01, 2018; Cases: 19898" role="graphics-symbol" aria-roledescription="point" transform="translate(88.32335329341318,68.36666666666669)" d="M2.7386127875258306,0A2.7386127875258306,2.7386127875258306,0,1,1,-2.7386127875258306,0A2.7386127875258306,2.7386127875258306,0,1,1,2.7386127875258306,0" fill="white" stroke="#4c78a8" stroke-width="2" opacity="1"/><path aria-label="Month: Apr 01, 2018; Cases: 20183" role="graphics-symbol" aria-roledescription="point" transform="translate(134.66816367265469,63.61666666666665)" d="M2.7386127875258306,0A2.7386127875258306,2.7386127875258306,0,1,1,-2.7386127875258306,0A2.7386127875258306,2.7386127875258306,0,1,1,2.7386127875258306,0" fill="white" stroke="#4c78a8" stroke-width="2" opacity="1"/><path aria-label="Month: May 01, 2018; Cases: 22217" role="graphics-symbol" aria-roledescription="point" transform="translate(179.57834331337324,29.716666666666658)" d="M2.7386127875258306,0A2.7386127875258306,2.7386127875258306,0,1,1,-2.7386127875258306,0A2.7386127875258306,2.7386127875258306,0,1,1,2.7386127875258306,0" fill="white" stroke="#4c78a8" stroke-width="2" opacity="1"/><path aria-label="Month: Jun 01, 2018; Cases: 20893" role="graphics-symbol" aria-roledescription="point" transform="translate(225.98552894211576,51.78333333333334)" d="M2.7386127875258306,0A2.7386127875258306,2.7386127875258306,0,1,1,-2.7386127875258306,0A2.7386127875258306,2.7386127875258306,0,1,1,2.7386127875258306,0" fill="white" stroke="#4c78a8" stroke-width="2" opacity="1"/><path aria-label="Month: Jul 01, 2018; Cases: 19279" role="graphics-symbol" aria-roledescription="point" transform="translate(270.89570858283435,78.68333333333335)" d="M2.7386127875258306,0A2.7386127875258306,2.7386127875258306,0,1,1,-2.7386127875258306,0A2.7386127875258306,2.7386127875258306,0,1,1,2.7386127875258306,0" fill="white" stroke="#4c78a8" stroke-width="2" opacity="1"/><path aria-label="Month: Aug 01, 2018; Cases: 21542" role="graphics-symbol" aria-roledescription="point" transform="translate(317.30289421157687,40.96666666666668)" d="M2.7386127875258306,0A2.7386127875258306,2.7386127875258306,0,1,1,-2.7386127875258306,0A2.7386127875258306,2.7386127875258306,0,1,1,2.7386127875258306,0" fill="white" stroke="#4c78a8" stroke-width="2" opacity="1"/><path aria-label="Month: Sep 01, 2018; Cases: 21129" role="graphics-symbol" aria-roledescription="point" transform="translate(363.71007984031934,47.849999999999994)" d="M2.7386127875258306,0A2.7386127875258306,2.7386127875258306,0,1,1,-2.7386127875258306,0A2.7386127875258306,2.7386127875258306,0,1,1,2.7386127875258306,0" fill="white" stroke="#4c78a8" stroke-width="2" opacity="1"/><path aria-label="Month: Oct 01, 2018; Cases: 22269" role="graphics-symbol" aria-roledescription="point" transform="translate(408.6202594810379,28.849999999999998)" d="M2.7386127875258306,0A2.7386127875258306,2.7386127875258306,0,1,1,-2.7386127875258306,0A2.7386127875258306,2.7386127875258306,0,1,1,2.7386127875258306,0" fill="white" stroke="#4c78a8" stroke-width="2" opacity="1"/><path aria-label="Month: Nov 01, 2018; Cases: 20730" role="graphics-symbol" aria-roledescription="point" transform="translate(455.0898203592814,54.49999999999999)" d="M2.7386127875258306,0A2.7386127875258306,2.7386127875258306,0,1,1,-2.7386127875258306,0A2.7386127875258306,2.7386127875258306,0,1,1,2.7386127875258306,0" fill="white" stroke="#4c78a8" stroke-width="2" opacity="1"/><path aria-label="Month: Dec 01, 2018; Cases: 21648" role="graphics-symbol" aria-roledescription="point" transform="translate(500,39.19999999999999)" d="M2.7386127875258306,0A2.7386127875258306,2.7386127875258306,0,1,1,-2.7386127875258306,0A2.7386127875258306,2.7386127875258306,0,1,1,2.7386127875258306,0" fill="white" stroke="#4c78a8" stroke-width="2" opacity="1"/></g></g><path class="foreground" aria-hidden="true" d="" display="none"/></g></g></g></svg>